<svg xmlns="http://www.w3.org/2000/svg" version="1.1" xmlns:xlink="http://www.w3.org/1999/xlink" xmlns:svgjs="http://svgjs.dev/svgjs" width="1000" height="366" viewBox="0 0 1000 366"><g transform="matrix(1,0,0,1,-0.6060606060606233,0.4918373046284614)"><svg viewBox="0 0 396 145" data-background-color="#ffffff" preserveAspectRatio="xMidYMid meet" height="366" width="1000" xmlns="http://www.w3.org/2000/svg" xmlns:xlink="http://www.w3.org/1999/xlink"><g id="tight-bounds" transform="matrix(1,0,0,1,0.2400000000000091,-0.1948535769702886)"><svg viewBox="0 0 395.52 145.38970715394058" height="145.38970715394058" width="395.52"><g><svg viewBox="0 0 664.9541662865897 244.43135999999998" height="145.38970715394058" width="395.52"><g transform="matrix(1,0,0,1,269.4341662865898,85.82789167888126)"><svg viewBox="0 0 395.52 72.77557664223748" height="72.77557664223748" width="395.52"><g id="textblocktransform"><svg viewBox="0 0 395.52 72.77557664223748" height="72.77557664223748" width="395.52" id="textblock"><g><svg viewBox="0 0 395.52 42.36399513138111" height="42.36399513138111" width="395.52"><g transform="matrix(1,0,0,1,0,0)"><svg width="395.52" viewBox="3.8299999237060547 -36.040000915527344 340.96002197265625 36.53000259399414" height="42.36399513138111" data-palette-color="#1b7bce"><path d="M14.31 0L3.83 0 3.83-35.55 13.96-35.55Q18.82-35.55 21.28-33.18 23.73-30.81 23.73-26.07L23.73-26.07Q23.73-23.58 22.49-21.68 21.24-19.78 19.12-18.73L19.12-18.73Q21.56-17.99 22.99-15.72 24.41-13.45 24.41-10.25L24.41-10.25Q24.41-5.47 21.79-2.73 19.17 0 14.31 0L14.31 0ZM14.5-16.63L8.3-16.63 8.3-3.83 14.4-3.83Q16.94-3.83 18.43-5.51 19.92-7.18 19.92-10.21L19.92-10.21Q19.92-16.63 14.5-16.63L14.5-16.63ZM8.3-31.69L8.3-20.39 14.04-20.39Q16.36-20.39 17.79-21.95 19.21-23.51 19.21-26.1L19.21-26.1Q19.21-29.03 17.92-30.36 16.63-31.69 13.96-31.69L13.96-31.69 8.3-31.69ZM48.17 0L41.84-14.38 35.59-14.38 35.59 0 31.1 0 31.1-35.55 41.06-35.55Q46.29-35.55 48.97-32.82 51.66-30.1 51.66-24.85L51.66-24.85Q51.66-21.56 50.21-19.1 48.75-16.65 46.09-15.41L46.09-15.41 52.98-0.29 52.98 0 48.17 0ZM35.59-31.69L35.59-18.21 41.01-18.21Q43.82-18.21 45.49-20.02 47.17-21.83 47.17-24.85L47.17-24.85Q47.17-31.69 40.96-31.69L40.96-31.69 35.59-31.69ZM80.76-21.12L80.76-14.65Q80.76-7.37 77.66-3.44 74.56 0.49 68.84 0.49L68.84 0.49Q63.35 0.49 60.16-3.33 56.98-7.15 56.86-14.14L56.86-14.14 56.86-20.83Q56.86-27.95 60-31.99 63.15-36.04 68.79-36.04L68.79-36.04Q74.41-36.04 77.55-32.17 80.68-28.3 80.76-21.12L80.76-21.12ZM76.29-14.21L76.29-20.87Q76.29-26.51 74.45-29.26 72.6-32.01 68.79-32.01L68.79-32.01Q65.11-32.01 63.22-29.22 61.32-26.44 61.3-21.02L61.3-21.02 61.3-14.65Q61.3-9.2 63.19-6.35 65.08-3.49 68.84-3.49 72.6-3.49 74.41-6.13 76.22-8.76 76.29-14.21L76.29-14.21ZM110.88-35.55L110.88 0 106.39 0 92.16-27.39 92.16 0 87.66 0 87.66-35.55 92.16-35.55 106.44-8.03 106.44-35.55 110.88-35.55ZM122.28-35.55L129.02-21.92 135.71-35.55 140.96-35.55 131.7-17.92 141.15 0 135.85 0 129.02-13.87 122.16 0 116.86 0 126.36-17.92 117.06-35.55 122.28-35.55ZM162.51-35.55L162.51-3.83 176.45-3.83 176.45 0 158.02 0 158.02-35.55 162.51-35.55ZM197.15-35.55L201.64-35.55 201.64-10.28Q201.59-5.22 198.71-2.37 195.83 0.49 190.68 0.49L190.68 0.49Q185.41 0.49 182.62-2.31 179.84-5.1 179.79-10.28L179.79-10.28 179.79-35.55 184.24-35.55 184.24-10.45Q184.24-6.86 185.76-5.09 187.29-3.32 190.68-3.32L190.68-3.32Q194.1-3.32 195.62-5.09 197.15-6.86 197.15-10.45L197.15-10.45 197.15-35.55ZM230.77-17.7L230.77-4.42 229.98-3.44Q226.62 0.49 220.12 0.49L220.12 0.49Q214.36 0.49 211.08-3.33 207.79-7.15 207.72-14.14L207.72-14.14 207.72-21.12Q207.72-28.59 210.71-32.31 213.7-36.04 219.66-36.04L219.66-36.04Q224.74-36.04 227.6-33.2 230.47-30.37 230.77-25.12L230.77-25.12 226.3-25.12Q226.03-28.44 224.46-30.31 222.88-32.18 219.68-32.18L219.68-32.18Q215.85-32.18 214.07-29.68 212.28-27.17 212.21-21.68L212.21-21.68 212.21-14.43Q212.21-9.06 214.26-6.19 216.31-3.32 220.15-3.32L220.15-3.32Q223.76-3.32 225.64-5.08L225.64-5.08 226.3-5.69 226.3-13.89 219.8-13.89 219.8-17.7 230.77-17.7ZM260.3-17.7L260.3-4.42 259.52-3.44Q256.15 0.49 249.66 0.49L249.66 0.49Q243.9 0.49 240.61-3.33 237.33-7.15 237.26-14.14L237.26-14.14 237.26-21.12Q237.26-28.59 240.25-32.31 243.24-36.04 249.2-36.04L249.2-36.04Q254.27-36.04 257.14-33.2 260.01-30.37 260.3-25.12L260.3-25.12 255.84-25.12Q255.57-28.44 253.99-30.31 252.42-32.18 249.22-32.18L249.22-32.18Q245.39-32.18 243.61-29.68 241.82-27.17 241.75-21.68L241.75-21.68 241.75-14.43Q241.75-9.06 243.8-6.19 245.85-3.32 249.68-3.32L249.68-3.32Q253.3-3.32 255.18-5.08L255.18-5.08 255.84-5.69 255.84-13.89 249.34-13.89 249.34-17.7 260.3-17.7ZM286.99 0L284.18-9.28 272.17-9.28 269.41 0 264.82 0 276.27-35.55 280.1-35.55 291.58 0 286.99 0ZM278.17-29.3L273.34-13.13 283.03-13.13 278.17-29.3ZM318.38-17.7L318.38-4.42 317.6-3.44Q314.23 0.49 307.74 0.49L307.74 0.49Q301.97 0.49 298.69-3.33 295.41-7.15 295.33-14.14L295.33-14.14 295.33-21.12Q295.33-28.59 298.32-32.31 301.32-36.04 307.27-36.04L307.27-36.04Q312.35-36.04 315.22-33.2 318.09-30.37 318.38-25.12L318.38-25.12 313.91-25.12Q313.64-28.44 312.07-30.31 310.49-32.18 307.3-32.18L307.3-32.18Q303.46-32.18 301.68-29.68 299.9-27.17 299.83-21.68L299.83-21.68 299.83-14.43Q299.83-9.06 301.88-6.19 303.93-3.32 307.76-3.32L307.76-3.32Q311.37-3.32 313.25-5.08L313.25-5.08 313.91-5.69 313.91-13.89 307.42-13.89 307.42-17.7 318.38-17.7ZM342.72-20.26L342.72-16.43 330.15-16.43 330.15-3.83 344.79-3.83 344.79 0 325.68 0 325.68-35.55 344.55-35.55 344.55-31.69 330.15-31.69 330.15-20.26 342.72-20.26Z" opacity="1" transform="matrix(1,0,0,1,0,0)" fill="#1b7bce" class="wordmark-text-0" data-fill-palette-color="primary" id="text-0"></path></svg></g></svg></g><g transform="matrix(1,0,0,1,0,52.36511764601704)"><svg viewBox="0 0 232.209792 20.41045899622044" height="20.41045899622044" width="232.209792"><g transform="matrix(1,0,0,1,0,0)"><svg width="232.209792" viewBox="4 -37.5 568.780029296875 50" height="20.41045899622044" data-palette-color="#458bc8"><path d="M22.2-35L21.95-32 7.4-32 7.4-18.85 20.9-18.85 20.65-15.85 7.4-15.85 7.4 0 4 0 4-35 22.2-35ZM26.65-25L29.9-25.25 29.9 0 26.65 0 26.65-25ZM28.15-31.7Q27.15-31.7 26.62-32.35 26.1-33 26.1-34 26.1-35 26.67-35.63 27.25-36.25 28.25-36.25 29.25-36.25 29.87-35.63 30.5-35 30.5-33.9 30.5-32.8 29.82-32.25 29.15-31.7 28.15-31.7ZM39.75-25.25L39.75-22.25Q43.5-25 46.85-25.15L46.85-25.15Q49.9-25.15 51.55-24.4 53.2-23.65 54.27-22.28 55.35-20.9 55.35-18.4L55.35-18.4 55.35 0 52.1 0 52.1-17.55Q52.1-19.4 51.3-20.4L51.3-20.4Q49.7-22.25 46.4-22.25L46.4-22.25Q43.25-22.1 39.75-20.2L39.75-20.2 39.75 0 36.5 0 36.5-25 39.75-25.25ZM73.24-25.25L73.24-25.25Q76.19-25.25 78.84-23.5L78.84-23.5 78.84-37.25 82.09-37.5 82.09-1.15 81.84-1.15Q80.29-0.5 76.67-0.15 73.04 0.2 71.64 0.2L71.64 0.2Q67.44 0.2 64.69-1.9L64.69-1.9Q60.84-4.8 60.84-11.45 60.84-18.1 64.42-21.68 67.99-25.25 73.24-25.25ZM78.84-3.2L78.84-21.35Q76.34-22.3 73.94-22.3L73.94-22.3Q69.34-22.3 66.72-19.5 64.09-16.7 64.09-11.55 64.09-6.4 66.94-4.3L66.94-4.3Q68.99-2.7 72.12-2.7 75.24-2.7 78.84-3.2L78.84-3.2ZM109.94 0L101.04-25 104.69-25.25 112.14-2.35 121.74-25 125.24-25 108.64 12.5 105.59 12.5 111.09 0 109.94 0ZM127.04-6.4L127.04-6.4Q126.14-8.8 126.14-12L126.14-12Q126.14-18.15 129.59-21.68 133.03-25.2 138.24-25.2L138.24-25.2Q146.38-25.2 148.94-18.6L148.94-18.6Q149.88-16.2 149.88-13L149.88-13Q149.88-6.85 146.44-3.33 142.99 0.2 137.78 0.2L137.78 0.2Q129.63 0.2 127.04-6.4ZM129.38-12.35Q129.38-7.75 131.76-5.23 134.13-2.7 137.88-2.7 141.63-2.7 144.13-5.38 146.63-8.05 146.63-12.65 146.63-17.25 144.28-19.78 141.94-22.3 138.16-22.3 134.38-22.3 131.88-19.63 129.38-16.95 129.38-12.35ZM160.08-3.2L160.08-3.2Q161.18-2.8 163.58-2.8 165.98-2.8 169.78-4.75L169.78-4.75 169.78-25 173.03-25.25 173.03 0 169.78 0 169.78-2.7Q166.08 0.15 162.23 0.15L162.23 0.15Q157.43 0.15 155.28-2.7L155.28-2.7Q154.18-4.1 154.18-6.6L154.18-6.6 154.18-25 157.43-25.25 157.43-7.45Q157.43-4.35 160.08-3.2ZM193.88-24.5L192.58-21.5Q191.78-21.95 190.88-21.95 189.98-21.95 189.88-21.9L189.88-21.9Q187.98-21.9 186.06-20.53 184.13-19.15 182.78-17.45L182.78-17.45 182.78 0 179.53 0 179.53-25 182.78-25.25 182.78-19.65Q184.63-22 185.93-22.95L185.93-22.95Q188.33-24.75 190.53-24.85L190.53-24.85Q190.83-24.9 191.63-24.9 192.43-24.9 193.88-24.5L193.88-24.5ZM215.07-37.5L215.07-23Q218.02-25.45 221.77-25.45L221.77-25.45Q228.17-25.45 230.72-19.8L230.72-19.8Q231.72-17.5 231.72-13.85L231.72-13.85Q231.72-7.1 228.17-3.55 224.63 0 218.97 0L218.97 0Q215.67 0 213.95-0.45 212.22-0.9 211.82-1.15L211.82-1.15 211.82-37.25 215.07-37.5ZM215.07-21.25L215.07-21.25 215.07-2.8Q216.52-2.45 218.22-2.45L218.22-2.45Q223.22-2.45 225.85-5.35 228.47-8.25 228.47-13.5 228.47-18.75 225.82-21L225.82-21Q223.97-22.55 221.02-22.55 218.07-22.55 215.07-21.25ZM238.62-12.3L238.62-11.5Q238.62-2.7 247.02-2.7L247.02-2.7Q250.57-2.7 253.52-3.65L253.52-3.65Q254.27-3.9 254.57-4.05L254.57-4.05 255.32-1.4Q253.57-0.35 248.97 0.1L248.97 0.1Q247.67 0.2 246.22 0.2L246.22 0.2Q242.02 0.2 239.22-1.9L239.22-1.9Q235.37-4.75 235.37-11.4 235.37-18.05 238.85-21.63 242.32-25.2 247.27-25.2 252.22-25.2 254.72-22L254.72-22Q256.62-19.45 256.62-15.25L256.62-15.25Q256.62-14.25 256.52-13.15L256.52-13.15 238.67-13.15Q238.62-12.75 238.62-12.3L238.62-12.3ZM247.47-22.1L247.47-22.1Q244.37-22.1 242.17-20.23 239.97-18.35 239.12-15.4L239.12-15.4 253.67-15.4Q253.42-20.95 249.37-21.85L249.37-21.85Q248.47-22.1 247.47-22.1ZM276.42-24.5L275.62-21.7Q273.82-22.3 270.72-22.3 267.62-22.3 265.92-21.2 264.22-20.1 264.22-18.48 264.22-16.85 265.22-16.1 266.22-15.35 267.72-14.83 269.22-14.3 271-13.8 272.77-13.3 274.27-12.5L274.27-12.5Q277.77-10.7 277.77-7.15 277.77-3.6 275.35-1.7 272.92 0.2 268.27 0.2L268.27 0.2Q265.92 0.2 263.75-0.28 261.57-0.75 260.42-1.6L260.42-1.6 261.52-4.25Q262.67-3.25 266.17-2.8L266.17-2.8Q267.27-2.65 268.42-2.65L268.42-2.65Q271.02-2.65 272.77-3.73 274.52-4.8 274.52-7L274.52-7Q274.52-8.5 273.52-9.35 272.52-10.2 271.02-10.78 269.52-11.35 267.75-11.8 265.97-12.25 264.47-12.98 262.97-13.7 261.97-14.88 260.97-16.05 260.97-18.05L260.97-18.05Q260.97-21.3 263.47-23.25 265.97-25.2 270.17-25.2L270.17-25.2Q271.22-25.2 272.32-25.08 273.42-24.95 274.32-24.85L274.32-24.85 276.42-24.5ZM292.52-3.6L293.12-0.9Q292.22 0 289.87 0L289.87 0Q286.57 0 285.42-1.7L285.42-1.7Q283.47-3.55 283.47-6.7L283.47-6.7 283.47-22.1 280.67-22.1 281.12-25 283.47-25 283.47-29.95 286.72-30.25 286.72-25 292.52-25 292.52-22.1 286.72-22.1 286.72-5.9Q286.72-3 289.72-3L289.72-3Q291.02-3 292.52-3.6L292.52-3.6ZM316.96 0L313.71 0 313.71-37.25 316.96-37.5 316.96 0ZM327.86-3.2L327.86-3.2Q328.96-2.8 331.36-2.8 333.76-2.8 337.56-4.75L337.56-4.75 337.56-25 340.81-25.25 340.81 0 337.56 0 337.56-2.7Q333.86 0.15 330.01 0.15L330.01 0.15Q325.21 0.15 323.06-2.7L323.06-2.7Q321.96-4.1 321.96-6.6L321.96-6.6 321.96-25 325.21-25.25 325.21-7.45Q325.21-4.35 327.86-3.2ZM349.56-9.65L349.56-9.65Q345.86-11.5 345.86-16.6L345.86-16.6Q345.86-20.8 348.76-23 351.66-25.2 356.16-25.2L356.16-25.2Q357.36-25.2 359.11-24.95L359.11-24.95 368.51-25.2 368.41-23.3 362.96-23.3Q365.71-21.25 365.71-17.13 365.71-13 362.96-10.78 360.21-8.55 355.86-8.55L355.86-8.55Q353.06-8.55 351.21-9.05L351.21-9.05Q350.26-8.15 350.26-6.95L350.26-6.95Q350.26-5.25 352.13-4.5 354.01-3.75 356.56-3.4L356.56-3.4Q362.21-2.65 364.71-1.3L364.71-1.3Q368.31 0.7 368.31 4.85 368.31 9 364.36 11L364.36 11Q361.36 12.5 357.11 12.5 352.86 12.5 350.56 11.85L350.56 11.85Q344.51 10.1 344.51 5.35 344.51 0.6 349.86-2.7L349.86-2.7Q347.76-4.25 347.76-6.3 347.76-8.35 349.56-9.65ZM365.06 4.8L365.06 4.8Q365.06 1.55 360.76 0.3L360.76 0.3Q359.56-0.05 356.46-0.55 353.36-1.05 351.61-1.75L351.61-1.75Q347.76 1.45 347.76 4.45L347.76 4.45Q347.76 5.75 348.16 6.6 348.56 7.45 349.56 8.1L349.56 8.1Q351.76 9.6 356.26 9.6L356.26 9.6Q362.16 9.6 364.26 7.1L364.26 7.1Q365.06 6.15 365.06 4.8ZM362.31-17.25L362.31-17.25Q362.31-22.55 356.01-22.55L356.01-22.55Q353.01-22.55 351.06-21.18 349.11-19.8 349.11-16.98 349.11-14.15 350.51-12.68 351.91-11.2 355.23-11.2 358.56-11.2 360.43-12.8 362.31-14.4 362.31-17.25ZM376.66-9.65L376.66-9.65Q372.96-11.5 372.96-16.6L372.96-16.6Q372.96-20.8 375.86-23 378.76-25.2 383.26-25.2L383.26-25.2Q384.46-25.2 386.21-24.95L386.21-24.95 395.61-25.2 395.51-23.3 390.06-23.3Q392.81-21.25 392.81-17.13 392.81-13 390.06-10.78 387.31-8.55 382.96-8.55L382.96-8.55Q380.16-8.55 378.31-9.05L378.31-9.05Q377.36-8.15 377.36-6.95L377.36-6.95Q377.36-5.25 379.23-4.5 381.11-3.75 383.66-3.4L383.66-3.4Q389.31-2.65 391.81-1.3L391.81-1.3Q395.41 0.7 395.41 4.85 395.41 9 391.46 11L391.46 11Q388.46 12.5 384.21 12.5 379.96 12.5 377.66 11.85L377.66 11.85Q371.61 10.1 371.61 5.35 371.61 0.6 376.96-2.7L376.96-2.7Q374.86-4.25 374.86-6.3 374.86-8.35 376.66-9.65ZM392.16 4.8L392.16 4.8Q392.16 1.55 387.86 0.3L387.86 0.3Q386.66-0.05 383.56-0.55 380.46-1.05 378.71-1.75L378.71-1.75Q374.86 1.45 374.86 4.45L374.86 4.45Q374.86 5.75 375.26 6.6 375.66 7.45 376.66 8.1L376.66 8.1Q378.86 9.6 383.36 9.6L383.36 9.6Q389.26 9.6 391.36 7.1L391.36 7.1Q392.16 6.15 392.16 4.8ZM389.41-17.25L389.41-17.25Q389.41-22.55 383.11-22.55L383.11-22.55Q380.11-22.55 378.16-21.18 376.21-19.8 376.21-16.98 376.21-14.15 377.61-12.68 379.01-11.2 382.33-11.2 385.66-11.2 387.53-12.8 389.41-14.4 389.41-17.25ZM399.7-19.9L398.8-22.3Q404.25-25 408.35-25.15L408.35-25.15Q411.6-25.15 413.38-24.33 415.15-23.5 416.25-22.03 417.35-20.55 417.35-17.9L417.35-17.9 417.35 0 414.1 0 414.1-1.9Q407.25 0.2 405.3 0.2L405.3 0.2Q405.2 0.2 405.15 0.2L405.15 0.2Q400.65 0.2 399-2.55L399-2.55Q398.4-3.55 398.33-4.5 398.25-5.45 398.25-6.1L398.25-6.1Q398.25-7.9 399.65-9.33 401.05-10.75 403-11.25L403-11.25Q406.3-12.1 414.1-12.75L414.1-12.75 414.1-16.8Q414.1-22.25 408.4-22.25L408.4-22.25Q404.4-22.25 399.7-19.9L399.7-19.9ZM401.3-5.7L401.3-5.7Q401.3-2.1 406.25-2.1L406.25-2.1Q410.2-2.1 414.1-3.8L414.1-3.8 414.1-10.95Q406.3-9.85 404.45-9.25L404.45-9.25Q401.3-8.25 401.3-5.7ZM425.45-9.65L425.45-9.65Q421.75-11.5 421.75-16.6L421.75-16.6Q421.75-20.8 424.65-23 427.55-25.2 432.05-25.2L432.05-25.2Q433.25-25.2 435-24.95L435-24.95 444.4-25.2 444.3-23.3 438.85-23.3Q441.6-21.25 441.6-17.13 441.6-13 438.85-10.78 436.1-8.55 431.75-8.55L431.75-8.55Q428.95-8.55 427.1-9.05L427.1-9.05Q426.15-8.15 426.15-6.95L426.15-6.95Q426.15-5.25 428.03-4.5 429.9-3.75 432.45-3.4L432.45-3.4Q438.1-2.65 440.6-1.3L440.6-1.3Q444.2 0.7 444.2 4.85 444.2 9 440.25 11L440.25 11Q437.25 12.5 433 12.5 428.75 12.5 426.45 11.85L426.45 11.85Q420.4 10.1 420.4 5.35 420.4 0.6 425.75-2.7L425.75-2.7Q423.65-4.25 423.65-6.3 423.65-8.35 425.45-9.65ZM440.95 4.8L440.95 4.8Q440.95 1.55 436.65 0.3L436.65 0.3Q435.45-0.05 432.35-0.55 429.25-1.05 427.5-1.75L427.5-1.75Q423.65 1.45 423.65 4.45L423.65 4.45Q423.65 5.75 424.05 6.6 424.45 7.45 425.45 8.1L425.45 8.1Q427.65 9.6 432.15 9.6L432.15 9.6Q438.05 9.6 440.15 7.1L440.15 7.1Q440.95 6.15 440.95 4.8ZM438.2-17.25L438.2-17.25Q438.2-22.55 431.9-22.55L431.9-22.55Q428.9-22.55 426.95-21.18 425-19.8 425-16.98 425-14.15 426.4-12.68 427.8-11.2 431.13-11.2 434.45-11.2 436.33-12.8 438.2-14.4 438.2-17.25ZM449.75-12.3L449.75-11.5Q449.75-2.7 458.15-2.7L458.15-2.7Q461.7-2.7 464.65-3.65L464.65-3.65Q465.4-3.9 465.7-4.05L465.7-4.05 466.45-1.4Q464.7-0.35 460.1 0.1L460.1 0.1Q458.8 0.2 457.35 0.2L457.35 0.2Q453.15 0.2 450.35-1.9L450.35-1.9Q446.5-4.75 446.5-11.4 446.5-18.05 449.97-21.63 453.45-25.2 458.4-25.2 463.35-25.2 465.85-22L465.85-22Q467.75-19.45 467.75-15.25L467.75-15.25Q467.75-14.25 467.65-13.15L467.65-13.15 449.8-13.15Q449.75-12.75 449.75-12.3L449.75-12.3ZM458.6-22.1L458.6-22.1Q455.5-22.1 453.3-20.23 451.1-18.35 450.25-15.4L450.25-15.4 464.8-15.4Q464.55-20.95 460.5-21.85L460.5-21.85Q459.6-22.1 458.6-22.1ZM491.24-37.5L491.24-22.15Q495.19-25 498.84-25.15L498.84-25.15Q501.94-25.15 503.59-24.4 505.24-23.65 506.29-22.28 507.34-20.9 507.34-18.4L507.34-18.4 507.34 0 504.09 0 504.09-17.55Q504.09-19.4 503.29-20.4L503.29-20.4Q501.69-22.25 498.39-22.25L498.39-22.25Q495.14-22.1 491.24-20.15L491.24-20.15 491.24 0 487.99 0 487.99-37.25 491.24-37.5ZM514.84-12.3L514.84-11.5Q514.84-2.7 523.24-2.7L523.24-2.7Q526.79-2.7 529.74-3.65L529.74-3.65Q530.49-3.9 530.79-4.05L530.79-4.05 531.54-1.4Q529.79-0.35 525.19 0.1L525.19 0.1Q523.89 0.2 522.44 0.2L522.44 0.2Q518.24 0.2 515.44-1.9L515.44-1.9Q511.59-4.75 511.59-11.4 511.59-18.05 515.07-21.63 518.54-25.2 523.49-25.2 528.44-25.2 530.94-22L530.94-22Q532.84-19.45 532.84-15.25L532.84-15.25Q532.84-14.25 532.74-13.15L532.74-13.15 514.89-13.15Q514.84-12.75 514.84-12.3L514.84-12.3ZM523.69-22.1L523.69-22.1Q520.59-22.1 518.39-20.23 516.19-18.35 515.34-15.4L515.34-15.4 529.89-15.4Q529.64-20.95 525.59-21.85L525.59-21.85Q524.69-22.1 523.69-22.1ZM551.49-24.5L550.19-21.5Q549.39-21.95 548.49-21.95 547.59-21.95 547.49-21.9L547.49-21.9Q545.59-21.9 543.66-20.53 541.74-19.15 540.39-17.45L540.39-17.45 540.39 0 537.14 0 537.14-25 540.39-25.25 540.39-19.65Q542.24-22 543.54-22.95L543.54-22.95Q545.94-24.75 548.14-24.85L548.14-24.85Q548.44-24.9 549.24-24.9 550.04-24.9 551.49-24.5L551.49-24.5ZM554.78-12.3L554.78-11.5Q554.78-2.7 563.18-2.7L563.18-2.7Q566.74-2.7 569.68-3.65L569.68-3.65Q570.43-3.9 570.74-4.05L570.74-4.05 571.49-1.4Q569.74-0.35 565.13 0.1L565.13 0.1Q563.83 0.2 562.38 0.2L562.38 0.2Q558.18 0.2 555.38-1.9L555.38-1.9Q551.53-4.75 551.53-11.4 551.53-18.05 555.01-21.63 558.49-25.2 563.43-25.2 568.38-25.2 570.88-22L570.88-22Q572.78-19.45 572.78-15.25L572.78-15.25Q572.78-14.25 572.68-13.15L572.68-13.15 554.83-13.15Q554.78-12.75 554.78-12.3L554.78-12.3ZM563.63-22.1L563.63-22.1Q560.53-22.1 558.33-20.23 556.13-18.35 555.28-15.4L555.28-15.4 569.83-15.4Q569.58-20.95 565.53-21.85L565.53-21.85Q564.63-22.1 563.63-22.1Z" opacity="1" transform="matrix(1,0,0,1,0,0)" fill="#458bc8" class="slogan-text-1" data-fill-palette-color="secondary" id="text-1"></path></svg></g></svg></g></svg></g></svg></g><g><svg viewBox="0 0 244.43135999999998 244.43135999999998" height="244.43135999999998" width="244.43135999999998"><g><svg viewBox="0 0 244.43135999999998 244.43135999999998" height="244.43135999999998" width="244.43135999999998"><g transform="matrix(1,0,0,1,64.60265593644992,70.02314169604216)"><svg viewBox="0 0 115.22604812710014 104.38507660791566" height="104.38507660791566" width="115.22604812710014"><g><svg xmlns="http://www.w3.org/2000/svg" xmlns:xlink="http://www.w3.org/1999/xlink" version="1.1" viewBox="4.062175273895264 8.197724342346191 87.87383270263672 79.60627746582031" x="0" y="0" height="104.38507660791566" width="115.22604812710014" class="icon-s-0" data-fill-palette-color="accent" id="s-0"><path d="M14.988 63.256c-0.512 0-1.024-0.196-1.416-0.584-0.78-0.772-0.78-2.048 0-2.828l42.428-42.416c0.776-0.78 2.048-0.78 2.828 0 0.776 0.772 0.776 2.048 0 2.828l-42.432 42.416c-0.388 0.392-0.896 0.584-1.408 0.584z" fill="#2e81c9" data-fill-palette-color="accent"></path><path d="M71.556 40.632c-0.516 0-1.024-0.196-1.416-0.584-0.78-0.772-0.78-2.048 0-2.828l16.968-16.96-2.828-2.832c-0.78-0.78-0.78-2.056 0-2.828 0.772-0.78 2.048-0.78 2.828 0l4.244 4.244c0.376 0.384 0.584 0.892 0.584 1.416s-0.212 1.04-0.584 1.416l-18.384 18.388c-0.388 0.372-0.904 0.568-1.412 0.568z" fill="#2e81c9" data-fill-palette-color="accent"></path><path d="M30.968 87.804c-2.312 0-4.484-0.904-6.12-2.536-3.368-3.376-3.376-8.868-0.004-12.252 3.272-3.264 8.972-3.264 12.248 0 3.372 3.384 3.372 8.876 0 12.252-1.636 1.636-3.808 2.536-6.124 2.536zM30.972 74.488c-1.244 0-2.416 0.484-3.296 1.364-1.816 1.816-1.812 4.772 0 6.588 1.76 1.752 4.828 1.752 6.588-0.004 1.816-1.812 1.816-4.768 0-6.584-0.88-0.88-2.048-1.364-3.292-1.364z" fill="#2e81c9" data-fill-palette-color="accent"></path><path d="M21.092 72.196c-0.512 0-1.024-0.196-1.416-0.584l-12.752-12.752c-3.996-3.996-3.776-11.22 0.464-15.452l31.784-31.78c4.116-4.12 12-4.684 15.832-0.844l22.204 22.204c0.78 0.78 0.78 2.048 0 2.828l-35.372 35.372c-0.78 0.78-2.048 0.78-2.828 0-4.656-4.644-11.652-4.416-16.504 0.432-0.392 0.38-0.9 0.576-1.412 0.576zM47.988 12.056c-2.216 0-4.504 0.916-5.984 2.4l-31.784 31.772c-2.688 2.696-2.908 7.368-0.464 9.804l11.412 11.416c5.776-4.68 13.6-4.864 19.18-0.428l32.624-32.612-20.78-20.788c-1.012-1.02-2.504-1.564-4.204-1.564z" fill="#2e81c9" data-fill-palette-color="accent"></path></svg></g></svg></g><g><path d="M24.543 90.079l-1.904 5.888-19.968-6.458 1.843-5.699c0.587-1.814 1.472-3.04 2.655-3.676 1.181-0.63 2.66-0.658 4.436-0.084v0c0.929 0.301 1.675 0.8 2.239 1.499 0.565 0.692 0.915 1.5 1.049 2.424v0c0.573-0.82 1.369-1.362 2.39-1.625 1.027-0.261 2.138-0.199 3.332 0.187v0c1.795 0.581 3.045 1.53 3.751 2.847 0.707 1.311 0.766 2.877 0.177 4.697zM15.237 86.954l-1.125 3.48 7.187 2.324 1.11-3.432c0.307-0.948 0.237-1.802-0.209-2.56-0.444-0.765-1.235-1.331-2.372-1.699v0c-2.402-0.777-3.932-0.148-4.591 1.887zM5.645 87.695l6.353 2.055 1.042-3.224c0.28-0.866 0.213-1.663-0.201-2.39-0.408-0.725-1.098-1.245-2.071-1.56v0c-1.094-0.354-1.969-0.368-2.626-0.043-0.657 0.325-1.146 0.984-1.467 1.977v0z" fill="#2e81c9" data-fill-palette-color="accent"></path><path d="M35.73 67.189l-9.214-1.037-1.855 3.197 7.343 4.261-1.33 2.293-18.152-10.533 2.951-5.085c1.034-1.781 2.278-2.86 3.733-3.237 1.455-0.377 3.076-0.047 4.863 0.99v0c1.126 0.653 1.963 1.469 2.509 2.447 0.546 0.978 0.769 2.044 0.668 3.198v0l9.763 0.965 0.147 0.085zM15.817 64.218l6.887 3.996 1.611-2.775c0.553-0.954 0.688-1.894 0.403-2.82-0.285-0.926-0.944-1.689-1.979-2.288v0c-2.327-1.35-4.103-0.971-5.326 1.137v0z" fill="#2e81c9" data-fill-palette-color="accent"></path><path d="M42.378 39.783l2.827 2.565c2.121 1.924 3.343 3.859 3.668 5.804 0.33 1.94-0.262 3.745-1.775 5.412v0c-1.451 1.599-3.154 2.359-5.11 2.28-1.961-0.083-3.975-1.032-6.043-2.845v0l-2.923-2.652c-2.076-1.884-3.29-3.819-3.64-5.805-0.341-1.987 0.234-3.802 1.725-5.446v0c1.486-1.638 3.208-2.404 5.165-2.297 1.957 0.107 3.992 1.102 6.106 2.984zM43.622 44.477l-2.915-2.644c-1.643-1.491-3.109-2.332-4.398-2.524-1.289-0.191-2.437 0.269-3.446 1.381v0c-0.973 1.073-1.304 2.253-0.992 3.54 0.312 1.288 1.253 2.653 2.824 4.096v0l2.789 2.531c1.589 1.442 3.05 2.264 4.381 2.468 1.331 0.203 2.495-0.244 3.491-1.341 0.995-1.097 1.348-2.257 1.058-3.48-0.29-1.223-1.221-2.565-2.792-4.027z" fill="#2e81c9" data-fill-palette-color="accent"></path><path d="M58.275 17.128l12.043 17.187-2.17 1.521-16.169-8.419 9.281 13.246-2.171 1.521-12.043-17.187 2.171-1.521 16.233 8.459-9.321-13.303z" fill="#2e81c9" data-fill-palette-color="accent"></path><path d="M73.607 9.703l6.658 6.012 0.707-8.93 2.881-1.142-1.245 11.684 9.086 7.783-2.909 1.153-6.769-6.129-0.754 9.109-2.909 1.153 1.318-11.906-8.936-7.65z" fill="#2e81c9" data-fill-palette-color="accent"></path><path d="M114.668 0l1.044 18.695 8.219-0.458 0.126 2.258-10.865 0.607-1.17-20.954z" fill="#2e81c9" data-fill-palette-color="accent"></path><path d="M144.765 1.775l2.626 0.363-2.04 14.777c-0.291 1.965-1.077 3.429-2.356 4.393-1.272 0.958-2.915 1.298-4.93 1.02v0c-2.053-0.283-3.547-1.046-4.482-2.289-0.936-1.236-1.274-2.865-1.016-4.888v0l2.04-14.778 2.596 0.359-2.026 14.679c-0.193 1.395-0.037 2.48 0.467 3.253 0.497 0.773 1.407 1.25 2.729 1.433v0c1.336 0.184 2.348-0.028 3.036-0.637 0.694-0.608 1.138-1.61 1.33-3.006v0z" fill="#2e81c9" data-fill-palette-color="accent"></path><path d="M169.663 20.434l-2.722 7.355-0.631 0.383c-1.783 0.991-3.874 1.042-6.273 0.154v0c-2.125-0.786-3.534-2.108-4.227-3.966-0.685-1.862-0.566-4.088 0.357-6.679v0l1.428-3.859c1.022-2.76 2.342-4.623 3.96-5.59 1.61-0.963 3.515-1.037 5.715-0.223v0c1.875 0.694 3.15 1.757 3.824 3.19 0.672 1.439 0.702 3.146 0.091 5.123v0l-2.477-0.917c0.352-1.258 0.367-2.34 0.043-3.246-0.323-0.906-1.077-1.578-2.261-2.016v0c-1.414-0.523-2.62-0.442-3.618 0.244-1.002 0.678-1.89 2.024-2.664 4.04v0l-1.487 4.019c-0.733 1.981-0.919 3.641-0.557 4.979 0.368 1.34 1.259 2.272 2.673 2.796v0c1.333 0.493 2.466 0.544 3.398 0.152v0l0.489-0.201 1.68-4.542-3.588-1.329 0.781-2.112z" fill="#2e81c9" data-fill-palette-color="accent"></path><path d="M191.301 33.423l-4.271 6.577-0.699 0.235c-1.957 0.575-4.009 0.165-6.154-1.227v0c-1.9-1.234-2.984-2.833-3.253-4.798-0.26-1.967 0.346-4.112 1.816-6.437v0l2.241-3.452c1.603-2.468 3.3-3.996 5.091-4.583 1.782-0.585 3.657-0.239 5.624 1.037v0c1.677 1.089 2.687 2.406 3.03 3.952 0.339 1.551-0.006 3.224-1.037 5.018v0l-2.215-1.438c0.62-1.15 0.872-2.202 0.756-3.157-0.117-0.955-0.704-1.776-1.763-2.464v0c-1.265-0.821-2.459-1.007-3.584-0.556-1.126 0.441-2.288 1.56-3.486 3.356v0l-2.334 3.594c-1.151 1.772-1.696 3.35-1.637 4.735 0.065 1.389 0.729 2.494 1.994 3.315v0c1.192 0.774 2.286 1.073 3.281 0.894v0l0.521-0.089 2.638-4.062-3.209-2.084 1.226-1.889z" fill="#2e81c9" data-fill-palette-color="accent"></path><path d="M200.744 56.985l2.811-4.99-4.897-5.121-5.091 2.607-1.873-1.959 19.844-9.615 1.563 1.635-10.484 19.402zM209.651 41.27l-8.876 4.531 3.953 4.134z" fill="#2e81c9" data-fill-palette-color="accent"></path><path d="M223.246 71.334l-6.659 4.143-0.733-0.084c-2.016-0.31-3.7-1.552-5.051-3.723v0c-1.197-1.923-1.5-3.832-0.909-5.725 0.6-1.891 2.058-3.577 4.376-5.059v0l3.494-2.174c2.499-1.555 4.684-2.218 6.555-1.989 1.862 0.226 3.413 1.335 4.652 3.326v0c1.056 1.698 1.412 3.319 1.066 4.865-0.351 1.549-1.374 2.916-3.068 4.103v0l-1.395-2.242c1.049-0.778 1.724-1.624 2.024-2.538 0.3-0.914 0.116-1.907-0.551-2.979v0c-0.797-1.28-1.799-1.955-3.009-2.025-1.207-0.079-2.734 0.441-4.581 1.559v0l-3.638 2.264c-1.794 1.116-2.958 2.314-3.492 3.593-0.531 1.285-0.398 2.567 0.399 3.848v0c0.751 1.207 1.615 1.941 2.591 2.202v0l0.51 0.141 4.112-2.559-2.022-3.249 1.912-1.19z" fill="#2e81c9" data-fill-palette-color="accent"></path><path d="M232.911 91.379l-2.129 0.766-2.514-6.986-7.004 2.521 2.929 8.139-2.128 0.765-3.823-10.623 19.746-7.106 3.773 10.482-2.138 0.77-2.878-7.998-6.348 2.284z" fill="#2e81c9" data-fill-palette-color="accent"></path><path d="M9.642 164.105l-1.933-5.963 20.238-6.562 1.872 5.773c0.598 1.845 0.599 3.378 0.003 4.598-0.596 1.22-1.795 2.122-3.596 2.706v0c-0.948 0.307-1.858 0.344-2.73 0.11-0.874-0.24-1.641-0.7-2.302-1.38v0c0.023 1.019-0.31 1.941-0.999 2.765-0.685 0.816-1.635 1.42-2.848 1.813v0c-1.82 0.59-3.409 0.557-4.768-0.099-1.36-0.662-2.339-1.916-2.937-3.761zM19.148 161.148l-1.143-3.526-7.289 2.363 1.124 3.47c0.313 0.967 0.881 1.628 1.702 1.983 0.816 0.364 1.8 0.359 2.949-0.013v0c2.439-0.791 3.325-2.216 2.657-4.277zM26.574 154.843l-6.436 2.087 1.057 3.261c0.285 0.878 0.812 1.493 1.583 1.844 0.77 0.351 1.648 0.366 2.634 0.047v0c1.106-0.359 1.832-0.866 2.178-1.523 0.348-0.651 0.358-1.481 0.029-2.493v0z" fill="#2e81c9" data-fill-palette-color="accent"></path><path d="M22.236 190.071l5.541-7.601-1.878-3.231-7.444 4.327-1.352-2.327 18.395-10.69 2.994 5.152c1.048 1.804 1.375 3.443 0.979 4.918-0.405 1.472-1.512 2.734-3.321 3.785v0c-1.137 0.661-2.276 0.989-3.416 0.983-1.138-0.015-2.188-0.354-3.15-1.016v0l-5.746 8.099-0.155 0.09zM34.851 174.037l-6.97 4.051 1.632 2.808c0.561 0.965 1.32 1.557 2.278 1.777 0.96 0.211 1.963 0.012 3.008-0.595v0c2.355-1.369 2.912-3.121 1.669-5.258v0z" fill="#2e81c9" data-fill-palette-color="accent"></path><path d="M49.47 203.273l-2.862 2.6c-2.149 1.952-4.219 2.998-6.211 3.137-1.996 0.135-3.76-0.641-5.292-2.328v0c-1.474-1.623-2.075-3.415-1.801-5.377 0.278-1.967 1.429-3.905 3.453-5.817v0l2.966-2.693c2.105-1.912 4.177-2.946 6.215-3.102 2.039-0.147 3.813 0.611 5.323 2.273v0c1.51 1.662 2.114 3.474 1.813 5.435-0.306 1.965-1.508 3.923-3.604 5.872zM44.613 204.077l2.958-2.687c1.662-1.51 2.651-2.906 2.966-4.189 0.316-1.283-0.038-2.487-1.061-3.613v0c-0.987-1.087-2.146-1.537-3.476-1.352-1.326 0.19-2.793 1.006-4.4 2.448v0l-2.825 2.566c-1.608 1.461-2.58 2.855-2.917 4.185-0.336 1.32 0.001 2.535 1.01 3.646 1.01 1.111 2.146 1.582 3.41 1.412 1.259-0.175 2.704-0.98 4.335-2.416z" fill="#2e81c9" data-fill-palette-color="accent"></path><path d="M73.674 210.463l-12.198 17.431-2.204-1.543 2.417-18.315-9.398 13.431-2.205-1.543 12.198-17.432 2.205 1.543-2.439 18.398 9.444-13.496z" fill="#2e81c9" data-fill-palette-color="accent"></path><path d="M83.42 214.859l0.758 9.064 6.721-6.108 2.92 1.154-9.032 7.777 1.323 12.053-2.948-1.165-0.757-9.225-6.87 6.21-2.947-1.164 9.224-7.884-1.302-11.862z" fill="#2e81c9" data-fill-palette-color="accent"></path><path d="M116.071 222.719l-1.072 18.953 8.327 0.471-0.129 2.288-11.014-0.623 1.202-21.241z" fill="#2e81c9" data-fill-palette-color="accent"></path><path d="M141.099 221.166l2.666-0.365 2.051 14.988c0.253 1.997-0.112 3.64-1.096 4.927-0.985 1.281-2.494 2.061-4.528 2.34v0c-2.087 0.286-3.755-0.049-5.006-1.005-1.25-0.949-2.024-2.445-2.324-4.49v0l-2.051-14.987 2.636-0.361 2.036 14.879c0.195 1.422 0.639 2.44 1.334 3.056 0.702 0.621 1.724 0.84 3.067 0.657v0c1.349-0.185 2.279-0.671 2.788-1.458 0.503-0.78 0.658-1.88 0.463-3.302v0z" fill="#2e81c9" data-fill-palette-color="accent"></path><path d="M167.805 223.806l2.752 7.461-0.24 0.704c-0.717 1.935-2.29 3.351-4.721 4.248v0c-2.157 0.795-4.115 0.707-5.876-0.266-1.757-0.981-3.129-2.772-4.117-5.375v0l-1.444-3.917c-1.032-2.799-1.248-5.102-0.647-6.91 0.609-1.804 2.03-3.117 4.261-3.94v0c1.901-0.701 3.583-0.72 5.046-0.055 1.463 0.664 2.612 1.957 3.449 3.88v0l-2.506 0.924c-0.557-1.204-1.261-2.045-2.11-2.525-0.852-0.486-1.876-0.508-3.073-0.067v0c-1.434 0.529-2.31 1.387-2.63 2.573-0.322 1.181-0.116 2.804 0.617 4.871v0l1.5 4.067c0.742 2.013 1.695 3.415 2.856 4.204 1.164 0.796 2.463 0.929 3.897 0.4v0c1.353-0.499 2.259-1.208 2.72-2.128v0l0.247-0.484-1.697-4.6-3.646 1.344-0.79-2.141z" fill="#2e81c9" data-fill-palette-color="accent"></path><path d="M188.393 211.344l4.324 6.675-0.079 0.739c-0.274 2.045-1.498 3.773-3.672 5.182v0c-1.929 1.25-3.859 1.594-5.791 1.032-1.929-0.571-3.662-2.017-5.197-4.339v0l-2.27-3.505c-1.622-2.503-2.338-4.703-2.15-6.598 0.198-1.894 1.295-3.487 3.292-4.78v0c1.701-1.102 3.337-1.489 4.91-1.163 1.573 0.327 2.979 1.336 4.217 3.027v0l-2.241 1.452c-0.808-1.052-1.679-1.718-2.614-1.999-0.938-0.287-1.942-0.084-3.012 0.609v0c-1.282 0.831-1.949 1.86-2.001 3.089-0.055 1.223 0.503 2.761 1.673 4.616v0l2.356 3.638c1.167 1.801 2.404 2.959 3.711 3.474 1.311 0.52 2.607 0.365 3.89-0.466v0c1.21-0.784 1.938-1.675 2.185-2.674v0l0.134-0.526-2.665-4.115-3.262 2.113-1.241-1.916z" fill="#2e81c9" data-fill-palette-color="accent"></path><path d="M212.067 203.137l-5.166-2.631-4.978 5.195 2.871 5.027-1.903 1.986-10.619-19.669 1.585-1.655 20.113 9.761zM195.756 194.81l4.987 8.781 4.013-4.188z" fill="#2e81c9" data-fill-palette-color="accent"></path><path d="M218.714 175.09l6.747 4.208 0.243 0.704c0.62 1.968 0.245 4.052-1.127 6.25v0c-1.216 1.95-2.818 3.081-4.805 3.392-1.989 0.302-4.172-0.273-6.547-1.723v0l-3.543-2.21c-2.531-1.579-4.113-3.266-4.747-5.063-0.624-1.799-0.307-3.707 0.952-5.725v0c1.072-1.719 2.39-2.765 3.953-3.136 1.563-0.372 3.264-0.055 5.103 0.951v0l-1.414 2.266c-1.178-0.609-2.25-0.843-3.215-0.702-0.971 0.138-1.794 0.748-2.469 1.831v0c-0.809 1.296-0.975 2.512-0.5 3.646 0.469 1.131 1.627 2.287 3.473 3.47v0l3.678 2.294c1.821 1.136 3.432 1.659 4.834 1.57 1.408-0.085 2.516-0.776 3.325-2.072v0c0.763-1.223 1.044-2.34 0.844-3.349v0l-0.102-0.534-4.16-2.594-2.057 3.297-1.936-1.207z" fill="#2e81c9" data-fill-palette-color="accent"></path><path d="M225.008 155.056l2.156 0.779-2.556 7.076 7.094 2.563 2.976-8.238 2.156 0.778-3.887 10.76-20.01-7.228 3.84-10.629 2.174 0.786-2.929 8.107 6.43 2.322z" fill="#2e81c9" data-fill-palette-color="accent"></path><path d="M2.712 124.622c0-4.489 3.639-8.127 8.127-8.128 4.489 0 8.127 3.639 8.127 8.128 0 4.489-3.639 8.127-8.127 8.127-4.489 0-8.127-3.639-8.127-8.127z" fill="#2e81c9" data-fill-palette-color="accent"></path><path d="M225.302 124.622c0-4.489 3.639-8.127 8.127-8.128 4.489 0 8.127 3.639 8.128 8.128 0 4.489-3.639 8.127-8.128 8.127-4.489 0-8.127-3.639-8.127-8.127z" fill="#2e81c9" data-fill-palette-color="accent"></path></g></svg></g></svg></g></svg></g><defs></defs></svg><rect width="395.52" height="145.38970715394058" fill="none" stroke="none" visibility="hidden"></rect></g></svg></g></svg>